<svg width="900" height="520" viewBox="0 0 900 520" xmlns="http://www.w3.org/2000/svg">
<defs>
  <style>
    .mono { font-family: "JetBrains Mono",ui-monospace,"Cascadia Code","Fira Code",Consolas,monospace; }
    .kw   { fill: #ff7b72; }
    .fn   { fill: #d2a8ff; }
    .str  { fill: #a5d6ff; }
    .num  { fill: #79c0ff; }
    .cmt  { fill: #484f58; font-style: italic; }
    .var  { fill: #ffa657; }
    .pun  { fill: #c9d1d9; }
    .dim  { fill: #21262d; }
    .mute { fill: #484f58; }
    .lnum { fill: #30363d; }
    .wht  { fill: #f0f6fc; }
  </style>
  <filter id="glow">
    <feGaussianBlur stdDeviation="3" result="b"/>
    <feMerge><feMergeNode in="b"/><feMergeNode in="SourceGraphic"/></feMerge>
  </filter>
  <filter id="gs">
    <feGaussianBlur stdDeviation="1.5" result="b"/>
    <feMerge><feMergeNode in="b"/><feMergeNode in="SourceGraphic"/></feMerge>
  </filter>
  <clipPath id="rp"><rect x="450" y="0" width="450" height="330"/></clipPath>
  <clipPath id="all"><rect width="900" height="520"/></clipPath>
</defs>

<g clip-path="url(#all)">

<!-- BG -->
<rect width="900" height="520" fill="#0d1117"/>

<!-- top accent -->
<line x1="0" y1="0" x2="900" y2="0" stroke="#1f6feb" stroke-width="2.5"/>

<!-- dot grid -->
<g fill="#161b22" opacity="0.9">
<circle cx="30" cy="30" r="0.7"/><circle cx="60" cy="30" r="0.7"/><circle cx="90" cy="30" r="0.7"/><circle cx="120" cy="30" r="0.7"/><circle cx="150" cy="30" r="0.7"/><circle cx="180" cy="30" r="0.7"/><circle cx="210" cy="30" r="0.7"/><circle cx="240" cy="30" r="0.7"/><circle cx="270" cy="30" r="0.7"/><circle cx="300" cy="30" r="0.7"/><circle cx="330" cy="30" r="0.7"/><circle cx="360" cy="30" r="0.7"/><circle cx="390" cy="30" r="0.7"/><circle cx="420" cy="30" r="0.7"/><circle cx="450" cy="30" r="0.7"/><circle cx="480" cy="30" r="0.7"/><circle cx="510" cy="30" r="0.7"/><circle cx="540" cy="30" r="0.7"/><circle cx="570" cy="30" r="0.7"/><circle cx="600" cy="30" r="0.7"/><circle cx="630" cy="30" r="0.7"/><circle cx="660" cy="30" r="0.7"/><circle cx="690" cy="30" r="0.7"/><circle cx="720" cy="30" r="0.7"/><circle cx="750" cy="30" r="0.7"/><circle cx="780" cy="30" r="0.7"/><circle cx="810" cy="30" r="0.7"/><circle cx="840" cy="30" r="0.7"/><circle cx="870" cy="30" r="0.7"/><circle cx="30" cy="60" r="0.7"/><circle cx="60" cy="60" r="0.7"/><circle cx="90" cy="60" r="0.7"/><circle cx="120" cy="60" r="0.7"/><circle cx="150" cy="60" r="0.7"/><circle cx="180" cy="60" r="0.7"/><circle cx="210" cy="60" r="0.7"/><circle cx="240" cy="60" r="0.7"/><circle cx="270" cy="60" r="0.7"/><circle cx="300" cy="60" r="0.7"/><circle cx="330" cy="60" r="0.7"/><circle cx="360" cy="60" r="0.7"/><circle cx="390" cy="60" r="0.7"/><circle cx="420" cy="60" r="0.7"/><circle cx="450" cy="60" r="0.7"/><circle cx="480" cy="60" r="0.7"/><circle cx="510" cy="60" r="0.7"/><circle cx="540" cy="60" r="0.7"/><circle cx="570" cy="60" r="0.7"/><circle cx="600" cy="60" r="0.7"/><circle cx="630" cy="60" r="0.7"/><circle cx="660" cy="60" r="0.7"/><circle cx="690" cy="60" r="0.7"/><circle cx="720" cy="60" r="0.7"/><circle cx="750" cy="60" r="0.7"/><circle cx="780" cy="60" r="0.7"/><circle cx="810" cy="60" r="0.7"/><circle cx="840" cy="60" r="0.7"/><circle cx="870" cy="60" r="0.7"/><circle cx="30" cy="90" r="0.7"/><circle cx="60" cy="90" r="0.7"/><circle cx="90" cy="90" r="0.7"/><circle cx="120" cy="90" r="0.7"/><circle cx="150" cy="90" r="0.7"/><circle cx="180" cy="90" r="0.7"/><circle cx="210" cy="90" r="0.7"/><circle cx="240" cy="90" r="0.7"/><circle cx="270" cy="90" r="0.7"/><circle cx="300" cy="90" r="0.7"/><circle cx="330" cy="90" r="0.7"/><circle cx="360" cy="90" r="0.7"/><circle cx="390" cy="90" r="0.7"/><circle cx="420" cy="90" r="0.7"/><circle cx="450" cy="90" r="0.7"/><circle cx="480" cy="90" r="0.7"/><circle cx="510" cy="90" r="0.7"/><circle cx="540" cy="90" r="0.7"/><circle cx="570" cy="90" r="0.7"/><circle cx="600" cy="90" r="0.7"/><circle cx="630" cy="90" r="0.7"/><circle cx="660" cy="90" r="0.7"/><circle cx="690" cy="90" r="0.7"/><circle cx="720" cy="90" r="0.7"/><circle cx="750" cy="90" r="0.7"/><circle cx="780" cy="90" r="0.7"/><circle cx="810" cy="90" r="0.7"/><circle cx="840" cy="90" r="0.7"/><circle cx="870" cy="90" r="0.7"/><circle cx="30" cy="120" r="0.7"/><circle cx="60" cy="120" r="0.7"/><circle cx="90" cy="120" r="0.7"/><circle cx="120" cy="120" r="0.7"/><circle cx="150" cy="120" r="0.7"/><circle cx="180" cy="120" r="0.7"/><circle cx="210" cy="120" r="0.7"/><circle cx="240" cy="120" r="0.7"/><circle cx="270" cy="120" r="0.7"/><circle cx="300" cy="120" r="0.7"/><circle cx="330" cy="120" r="0.7"/><circle cx="360" cy="120" r="0.7"/><circle cx="390" cy="120" r="0.7"/><circle cx="420" cy="120" r="0.7"/><circle cx="450" cy="120" r="0.7"/><circle cx="480" cy="120" r="0.7"/><circle cx="510" cy="120" r="0.7"/><circle cx="540" cy="120" r="0.7"/><circle cx="570" cy="120" r="0.7"/><circle cx="600" cy="120" r="0.7"/><circle cx="630" cy="120" r="0.7"/><circle cx="660" cy="120" r="0.7"/><circle cx="690" cy="120" r="0.7"/><circle cx="720" cy="120" r="0.7"/><circle cx="750" cy="120" r="0.7"/><circle cx="780" cy="120" r="0.7"/><circle cx="810" cy="120" r="0.7"/><circle cx="840" cy="120" r="0.7"/><circle cx="870" cy="120" r="0.7"/><circle cx="30" cy="150" r="0.7"/><circle cx="60" cy="150" r="0.7"/><circle cx="90" cy="150" r="0.7"/><circle cx="120" cy="150" r="0.7"/><circle cx="150" cy="150" r="0.7"/><circle cx="180" cy="150" r="0.7"/><circle cx="210" cy="150" r="0.7"/><circle cx="240" cy="150" r="0.7"/><circle cx="270" cy="150" r="0.7"/><circle cx="300" cy="150" r="0.7"/><circle cx="330" cy="150" r="0.7"/><circle cx="360" cy="150" r="0.7"/><circle cx="390" cy="150" r="0.7"/><circle cx="420" cy="150" r="0.7"/><circle cx="450" cy="150" r="0.7"/><circle cx="480" cy="150" r="0.7"/><circle cx="510" cy="150" r="0.7"/><circle cx="540" cy="150" r="0.7"/><circle cx="570" cy="150" r="0.7"/><circle cx="600" cy="150" r="0.7"/><circle cx="630" cy="150" r="0.7"/><circle cx="660" cy="150" r="0.7"/><circle cx="690" cy="150" r="0.7"/><circle cx="720" cy="150" r="0.7"/><circle cx="750" cy="150" r="0.7"/><circle cx="780" cy="150" r="0.7"/><circle cx="810" cy="150" r="0.7"/><circle cx="840" cy="150" r="0.7"/><circle cx="870" cy="150" r="0.7"/><circle cx="30" cy="180" r="0.7"/><circle cx="60" cy="180" r="0.7"/><circle cx="90" cy="180" r="0.7"/><circle cx="120" cy="180" r="0.7"/><circle cx="150" cy="180" r="0.7"/><circle cx="180" cy="180" r="0.7"/><circle cx="210" cy="180" r="0.7"/><circle cx="240" cy="180" r="0.7"/><circle cx="270" cy="180" r="0.7"/><circle cx="300" cy="180" r="0.7"/><circle cx="330" cy="180" r="0.7"/><circle cx="360" cy="180" r="0.7"/><circle cx="390" cy="180" r="0.7"/><circle cx="420" cy="180" r="0.7"/><circle cx="450" cy="180" r="0.7"/><circle cx="480" cy="180" r="0.7"/><circle cx="510" cy="180" r="0.7"/><circle cx="540" cy="180" r="0.7"/><circle cx="570" cy="180" r="0.7"/><circle cx="600" cy="180" r="0.7"/><circle cx="630" cy="180" r="0.7"/><circle cx="660" cy="180" r="0.7"/><circle cx="690" cy="180" r="0.7"/><circle cx="720" cy="180" r="0.7"/><circle cx="750" cy="180" r="0.7"/><circle cx="780" cy="180" r="0.7"/><circle cx="810" cy="180" r="0.7"/><circle cx="840" cy="180" r="0.7"/><circle cx="870" cy="180" r="0.7"/><circle cx="30" cy="210" r="0.7"/><circle cx="60" cy="210" r="0.7"/><circle cx="90" cy="210" r="0.7"/><circle cx="120" cy="210" r="0.7"/><circle cx="150" cy="210" r="0.7"/><circle cx="180" cy="210" r="0.7"/><circle cx="210" cy="210" r="0.7"/><circle cx="240" cy="210" r="0.7"/><circle cx="270" cy="210" r="0.7"/><circle cx="300" cy="210" r="0.7"/><circle cx="330" cy="210" r="0.7"/><circle cx="360" cy="210" r="0.7"/><circle cx="390" cy="210" r="0.7"/><circle cx="420" cy="210" r="0.7"/><circle cx="450" cy="210" r="0.7"/><circle cx="480" cy="210" r="0.7"/><circle cx="510" cy="210" r="0.7"/><circle cx="540" cy="210" r="0.7"/><circle cx="570" cy="210" r="0.7"/><circle cx="600" cy="210" r="0.7"/><circle cx="630" cy="210" r="0.7"/><circle cx="660" cy="210" r="0.7"/><circle cx="690" cy="210" r="0.7"/><circle cx="720" cy="210" r="0.7"/><circle cx="750" cy="210" r="0.7"/><circle cx="780" cy="210" r="0.7"/><circle cx="810" cy="210" r="0.7"/><circle cx="840" cy="210" r="0.7"/><circle cx="870" cy="210" r="0.7"/><circle cx="30" cy="240" r="0.7"/><circle cx="60" cy="240" r="0.7"/><circle cx="90" cy="240" r="0.7"/><circle cx="120" cy="240" r="0.7"/><circle cx="150" cy="240" r="0.7"/><circle cx="180" cy="240" r="0.7"/><circle cx="210" cy="240" r="0.7"/><circle cx="240" cy="240" r="0.7"/><circle cx="270" cy="240" r="0.7"/><circle cx="300" cy="240" r="0.7"/><circle cx="330" cy="240" r="0.7"/><circle cx="360" cy="240" r="0.7"/><circle cx="390" cy="240" r="0.7"/><circle cx="420" cy="240" r="0.7"/><circle cx="450" cy="240" r="0.7"/><circle cx="480" cy="240" r="0.7"/><circle cx="510" cy="240" r="0.7"/><circle cx="540" cy="240" r="0.7"/><circle cx="570" cy="240" r="0.7"/><circle cx="600" cy="240" r="0.7"/><circle cx="630" cy="240" r="0.7"/><circle cx="660" cy="240" r="0.7"/><circle cx="690" cy="240" r="0.7"/><circle cx="720" cy="240" r="0.7"/><circle cx="750" cy="240" r="0.7"/><circle cx="780" cy="240" r="0.7"/><circle cx="810" cy="240" r="0.7"/><circle cx="840" cy="240" r="0.7"/><circle cx="870" cy="240" r="0.7"/><circle cx="30" cy="270" r="0.7"/><circle cx="60" cy="270" r="0.7"/><circle cx="90" cy="270" r="0.7"/><circle cx="120" cy="270" r="0.7"/><circle cx="150" cy="270" r="0.7"/><circle cx="180" cy="270" r="0.7"/><circle cx="210" cy="270" r="0.7"/><circle cx="240" cy="270" r="0.7"/><circle cx="270" cy="270" r="0.7"/><circle cx="300" cy="270" r="0.7"/><circle cx="330" cy="270" r="0.7"/><circle cx="360" cy="270" r="0.7"/><circle cx="390" cy="270" r="0.7"/><circle cx="420" cy="270" r="0.7"/><circle cx="450" cy="270" r="0.7"/><circle cx="480" cy="270" r="0.7"/><circle cx="510" cy="270" r="0.7"/><circle cx="540" cy="270" r="0.7"/><circle cx="570" cy="270" r="0.7"/><circle cx="600" cy="270" r="0.7"/><circle cx="630" cy="270" r="0.7"/><circle cx="660" cy="270" r="0.7"/><circle cx="690" cy="270" r="0.7"/><circle cx="720" cy="270" r="0.7"/><circle cx="750" cy="270" r="0.7"/><circle cx="780" cy="270" r="0.7"/><circle cx="810" cy="270" r="0.7"/><circle cx="840" cy="270" r="0.7"/><circle cx="870" cy="270" r="0.7"/><circle cx="30" cy="300" r="0.7"/><circle cx="60" cy="300" r="0.7"/><circle cx="90" cy="300" r="0.7"/><circle cx="120" cy="300" r="0.7"/><circle cx="150" cy="300" r="0.7"/><circle cx="180" cy="300" r="0.7"/><circle cx="210" cy="300" r="0.7"/><circle cx="240" cy="300" r="0.7"/><circle cx="270" cy="300" r="0.7"/><circle cx="300" cy="300" r="0.7"/><circle cx="330" cy="300" r="0.7"/><circle cx="360" cy="300" r="0.7"/><circle cx="390" cy="300" r="0.7"/><circle cx="420" cy="300" r="0.7"/><circle cx="450" cy="300" r="0.7"/><circle cx="480" cy="300" r="0.7"/><circle cx="510" cy="300" r="0.7"/><circle cx="540" cy="300" r="0.7"/><circle cx="570" cy="300" r="0.7"/><circle cx="600" cy="300" r="0.7"/><circle cx="630" cy="300" r="0.7"/><circle cx="660" cy="300" r="0.7"/><circle cx="690" cy="300" r="0.7"/><circle cx="720" cy="300" r="0.7"/><circle cx="750" cy="300" r="0.7"/><circle cx="780" cy="300" r="0.7"/><circle cx="810" cy="300" r="0.7"/><circle cx="840" cy="300" r="0.7"/><circle cx="870" cy="300" r="0.7"/>
</g>

<!-- vertical divider -->
<line x1="450" y1="20" x2="450" y2="330" stroke="#21262d" stroke-width="1"/>
<line x1="450" y1="20" x2="450" y2="330" stroke="#1f6feb" stroke-width="0.4" opacity="0.5"/>

<!-- ── corner brackets ── -->
<g fill="none" stroke="#21262d" stroke-width="1.2">
  <path d="M 22 22 L 22 42 M 22 22 L 42 22"/>
  <path d="M 428 308 L 428 288 M 428 308 L 408 308"/>
</g>
<g fill="none" stroke="#58a6ff" stroke-width="1.5" filter="url(#gs)">
  <path d="M 22 22 L 22 32 M 22 22 L 32 22">
    <animate attributeName="opacity" values="0.4;1;0.4" dur="2.5s" repeatCount="indefinite"/>
  </path>
  <path d="M 428 308 L 428 298 M 428 308 L 418 308">
    <animate attributeName="opacity" values="0.4;1;0.4" dur="2.5s" begin="1.2s" repeatCount="indefinite"/>
  </path>
</g>

<!-- ══ LEFT PANEL ══ -->

<!-- name -->
<text x="225" y="115" class="mono wht" font-size="58" font-weight="700"
      text-anchor="middle" letter-spacing="-1" filter="url(#glow)">N4xv</text>
<rect x="342" y="68" width="4" height="52" fill="#58a6ff" filter="url(#gs)">
  <animate attributeName="opacity" values="1;1;0;0" dur="1.1s" repeatCount="indefinite"/>
</rect>

<!-- subtitle -->
<text x="225" y="143" class="mono" font-size="11" text-anchor="middle"
      fill="#484f58" letter-spacing="4">DEV · SECURITY · BUILDER</text>

<!-- divider under title -->
<line x1="70" y1="157" x2="380" y2="157" stroke="#21262d" stroke-width="0.8"/>

<!-- ── LIVE VISITOR DATA ── -->
<!-- greeting -->
<text x="90" y="182" class="mono" font-size="11" fill="#30363d">// visitor</text>

<text x="90" y="200" class="mono" font-size="12">
  <tspan fill="#484f58">greeting  </tspan><tspan fill="#7ee787">good afternoon, visitor</tspan>
</text>
<text x="90" y="216" class="mono" font-size="12">
  <tspan fill="#484f58">location  </tspan><tspan fill="#a5d6ff">Chicago, United States</tspan>
</text>
<text x="90" y="232" class="mono" font-size="12">
  <tspan fill="#484f58">local time </tspan><tspan fill="#ffa657">16:24</tspan>
  <tspan fill="#30363d"> (21:24 UTC)</tspan>
</text>
<text x="90" y="248" class="mono" font-size="12">
  <tspan fill="#484f58">date      </tspan><tspan fill="#8b949e">Mon, 20 Apr 2026</tspan>
</text>

<!-- weather line -->
<text x="90" y="268" class="mono" font-size="11" fill="#30363d">// weather</text>
<text x="90" y="285" class="mono" font-size="12">
  <tspan fill="#484f58">temp      </tspan><tspan fill="#a5d6ff">9.5°C</tspan>
  <tspan fill="#30363d">  —  </tspan><tspan fill="#8b949e">Clear sky</tspan>
</text>
<text x="90" y="301" class="mono" font-size="12">
  <tspan fill="#484f58">wind      </tspan><tspan fill="#8b949e">22.7 km/h</tspan>
  <tspan fill="#30363d">  humidity </tspan><tspan fill="#8b949e">43%</tspan>
</text>

<!-- ══ RIGHT PANEL — code editor ══ -->
<g clip-path="url(#rp)">
  <!-- chrome bar -->
  <rect x="450" y="0" width="450" height="22" fill="#161b22"/>
  <circle cx="466" cy="11" r="4" fill="#ff5f57"/>
  <circle cx="480" cy="11" r="4" fill="#febc2e"/>
  <circle cx="494" cy="11" r="4" fill="#28c840"/>
  <text x="520" y="15" class="mono" font-size="10" fill="#484f58">profile.py — N4xv</text>

  <!-- gutter + code bg -->
  <rect x="450" y="22" width="32" height="308" fill="#0d1117"/>
  <rect x="482" y="22" width="418" height="308" fill="#0d1117"/>

  <!-- active line -->
  <rect x="450" y="106" width="450" height="13" fill="#161b22">
    <animate attributeName="y"
      values="106;120;134;148;162;176;190;176;162;148;134;120;106"
      dur="9s" repeatCount="indefinite"/>
  </rect>

  <!-- line numbers -->
  <g class="mono lnum" font-size="10" text-anchor="end">
    <text x="476" y="34"> 1</text><text x="476" y="48"> 2</text><text x="476" y="62"> 3</text><text x="476" y="76"> 4</text><text x="476" y="90"> 5</text><text x="476" y="104"> 6</text><text x="476" y="118"> 7</text><text x="476" y="132"> 8</text><text x="476" y="146"> 9</text><text x="476" y="160">10</text><text x="476" y="174">11</text><text x="476" y="188">12</text><text x="476" y="202">13</text><text x="476" y="216">14</text><text x="476" y="230">15</text><text x="476" y="244">16</text><text x="476" y="258">17</text><text x="476" y="272">18</text><text x="476" y="286">19</text><text x="476" y="300">20</text><text x="476" y="314">21</text>
  </g>

  <!-- code — typed in -->
  <g class="mono" font-size="11">

    <g opacity="0"><animate attributeName="opacity" values="0;1" dur="0.01s" begin="0.1s" fill="freeze"/>
    <text x="490" y="34"><tspan class="kw">class </tspan><tspan class="fn">N4xv</tspan><tspan class="pun">:</tspan></text></g>

    <g opacity="0"><animate attributeName="opacity" values="0;1" dur="0.01s" begin="0.35s" fill="freeze"/>
    <text x="490" y="62"><tspan fill="#30363d">  </tspan><tspan class="kw">def </tspan><tspan class="fn">__init__</tspan><tspan class="pun">(</tspan><tspan class="var">self</tspan><tspan class="pun">):</tspan></text></g>

    <g opacity="0"><animate attributeName="opacity" values="0;1" dur="0.01s" begin="0.6s" fill="freeze"/>
    <text x="490" y="76"><tspan fill="#30363d">    </tspan><tspan class="var">self</tspan><tspan class="pun">.</tspan><tspan class="str">age</tspan><tspan class="pun">   = </tspan><tspan class="num">19</tspan></text></g>

    <g opacity="0"><animate attributeName="opacity" values="0;1" dur="0.01s" begin="0.85s" fill="freeze"/>
    <text x="490" y="90"><tspan fill="#30363d">    </tspan><tspan class="var">self</tspan><tspan class="pun">.</tspan><tspan class="str">role</tspan><tspan class="pun">  = [</tspan><tspan class="str">"dev"</tspan><tspan class="pun">, </tspan><tspan class="str">"security"</tspan><tspan class="pun">, </tspan><tspan class="str">"builder"</tspan><tspan class="pun">]</tspan></text></g>

    <g opacity="0"><animate attributeName="opacity" values="0;1" dur="0.01s" begin="1.1s" fill="freeze"/>
    <text x="490" y="104"><tspan fill="#30363d">    </tspan><tspan class="var">self</tspan><tspan class="pun">.</tspan><tspan class="str">stack</tspan><tspan class="pun"> = [</tspan><tspan class="str">"py"</tspan><tspan class="pun">, </tspan><tspan class="str">"ts"</tspan><tspan class="pun">, </tspan><tspan class="str">"go"</tspan><tspan class="pun">, </tspan><tspan class="str">"java"</tspan><tspan class="pun">]</tspan></text></g>

    <g opacity="0"><animate attributeName="opacity" values="0;1" dur="0.01s" begin="1.35s" fill="freeze"/>
    <text x="490" y="132"><tspan fill="#30363d">  </tspan><tspan class="kw">def </tspan><tspan class="fn">mindset</tspan><tspan class="pun">(</tspan><tspan class="var">self</tspan><tspan class="pun">):</tspan></text></g>

    <g opacity="0"><animate attributeName="opacity" values="0;1" dur="0.01s" begin="1.6s" fill="freeze"/>
    <text x="490" y="146"><tspan fill="#30363d">    </tspan><tspan class="kw">return </tspan><tspan class="str">"break → read → build"</tspan></text></g>

    <g opacity="0"><animate attributeName="opacity" values="0;1" dur="0.01s" begin="1.85s" fill="freeze"/>
    <text x="490" y="174"><tspan fill="#30363d">  </tspan><tspan class="kw">def </tspan><tspan class="fn">status</tspan><tspan class="pun">(</tspan><tspan class="var">self</tspan><tspan class="pun">):</tspan></text></g>

    <g opacity="0"><animate attributeName="opacity" values="0;1" dur="0.01s" begin="2.1s" fill="freeze"/>
    <text x="490" y="188"><tspan fill="#30363d">    </tspan><tspan class="cmt"># always learning. always shipping.</tspan></text></g>

    <g opacity="0"><animate attributeName="opacity" values="0;1" dur="0.01s" begin="2.35s" fill="freeze"/>
    <text x="490" y="202"><tspan fill="#30363d">    </tspan><tspan class="kw">return </tspan><tspan class="num">True</tspan></text></g>

    <g opacity="0"><animate attributeName="opacity" values="0;1" dur="0.01s" begin="2.6s" fill="freeze"/>
    <text x="490" y="230"><tspan class="fn">me</tspan><tspan class="pun"> = </tspan><tspan class="fn">N4xv</tspan><tspan class="pun">()</tspan></text></g>

    <g opacity="0"><animate attributeName="opacity" values="0;1" dur="0.01s" begin="2.85s" fill="freeze"/>
    <text x="490" y="244"><tspan class="kw">assert </tspan><tspan class="fn">me</tspan><tspan class="pun">.</tspan><tspan class="fn">status</tspan><tspan class="pun">() == </tspan><tspan class="num">True</tspan><tspan class="cmt">  # ✓ passes</tspan></text></g>

    <g opacity="0"><animate attributeName="opacity" values="0;1" dur="0.01s" begin="3.1s" fill="freeze"/>
    <text x="490" y="272"><tspan class="cmt"># 19. no degree. just obsession.</tspan></text></g>

    <g opacity="0"><animate attributeName="opacity" values="0;1" dur="0.01s" begin="3.35s" fill="freeze"/>
    <text x="490" y="286"><tspan class="cmt"># ship → break → understand → repeat</tspan></text></g>

    <!-- cursor -->
    <g opacity="0"><animate attributeName="opacity" values="0;1" dur="0.01s" begin="3.6s" fill="freeze"/>
    <rect x="490" y="292" width="7" height="12" fill="#58a6ff">
      <animate attributeName="opacity" values="1;1;0;0" dur="1.1s" begin="3.6s" repeatCount="indefinite"/>
    </rect></g>

  </g>

  <!-- status bar -->
  <rect x="450" y="316" width="450" height="14" fill="#161b22"/>
  <line x1="450" y1="316" x2="900" y2="316" stroke="#21262d" stroke-width="0.8"/>
  <text x="460" y="327" class="mono" font-size="9" fill="#58a6ff">● N4xv</text>
  <text x="500" y="327" class="mono" font-size="9" fill="#484f58">main</text>
  <text x="530" y="327" class="mono" font-size="9" fill="#484f58">Python 3.12</text>
  <text x="680" y="327" class="mono" font-size="9" fill="#484f58">Chicago, US</text>
  <text x="760" y="327" class="mono" font-size="9" fill="#484f58">16:24</text>
  <text x="800" y="327" class="mono" font-size="9" fill="#484f58">UTF-8</text>
  <text x="840" y="327" class="mono" font-size="9" fill="#1f6feb">⬡ sec</text>
</g>

<!-- ══ BOTTOM DARK BAND ══ -->
<rect x="0" y="330" width="900" height="190" fill="#010409"/>
<line x1="0" y1="330" x2="900" y2="330" stroke="#21262d" stroke-width="0.8"/>

<!-- github stats section -->
<text x="50" y="360" class="mono" font-size="10" fill="#30363d">// github.stats</text>

<!-- stat boxes -->
<g class="mono">
  <!-- repos -->
  <rect x="50"  y="370" width="90" height="44" rx="4" fill="#0d1117" stroke="#21262d" stroke-width="0.8"/>
  <text x="95"  y="390" font-size="20" font-weight="700" fill="#f0f6fc" text-anchor="middle">6</text>
  <text x="95"  y="406" font-size="9"  fill="#484f58" text-anchor="middle">repos</text>

  <!-- stars -->
  <rect x="150" y="370" width="90" height="44" rx="4" fill="#0d1117" stroke="#21262d" stroke-width="0.8"/>
  <text x="195" y="390" font-size="20" font-weight="700" fill="#ffa657" text-anchor="middle">0</text>
  <text x="195" y="406" font-size="9"  fill="#484f58" text-anchor="middle">stars</text>

  <!-- followers -->
  <rect x="250" y="370" width="90" height="44" rx="4" fill="#0d1117" stroke="#21262d" stroke-width="0.8"/>
  <text x="295" y="390" font-size="20" font-weight="700" fill="#58a6ff" text-anchor="middle">6</text>
  <text x="295" y="406" font-size="9"  fill="#484f58" text-anchor="middle">followers</text>

  <!-- top lang -->
  <rect x="350" y="370" width="90" height="44" rx="4" fill="#0d1117" stroke="#21262d" stroke-width="0.8"/>
  <text x="395" y="390" font-size="13" font-weight="700" fill="#d2a8ff" text-anchor="middle">Python</text>
  <text x="395" y="406" font-size="9"  fill="#484f58" text-anchor="middle">top lang</text>
</g>

<!-- language bar -->
<text x="50" y="435" class="mono" font-size="10" fill="#30363d">// languages</text>
<g transform="translate(50, 444)"><rect x="0" y="0" width="107" height="6" fill="#3572A5" rx="1"/><rect x="108" y="0" width="107" height="6" fill="#563d7c" rx="1"/><rect x="216" y="0" width="107" height="6" fill="#555555" rx="1"/></g>
<circle cx="490" cy="386" r="3" fill="#3572A5"/><text x="498" y="390" class="mono" font-size="10" fill="#3572A5">Python <tspan fill="#30363d">33%</tspan></text><circle cx="605" cy="386" r="3" fill="#563d7c"/><text x="613" y="390" class="mono" font-size="10" fill="#d2a8ff">CSS <tspan fill="#30363d">33%</tspan></text><circle cx="720" cy="386" r="3" fill="#555555"/><text x="728" y="390" class="mono" font-size="10" fill="#8b949e">C <tspan fill="#30363d">33%</tspan></text>

<!-- col 2: currently -->
<line x1="460" y1="345" x2="460" y2="510" stroke="#161b22" stroke-width="1"/>

<text x="490" y="360" class="mono" font-size="10" fill="#30363d">// currently</text>
<text x="490" y="378" class="mono" font-size="11"><tspan fill="#484f58">learning   </tspan><tspan fill="#a5d6ff">Go · Web Exploitation</tspan></text>
<text x="490" y="394" class="mono" font-size="11"><tspan fill="#484f58">building   </tspan><tspan fill="#a5d6ff">tools I needed and didn't exist</tspan></text>
<text x="490" y="410" class="mono" font-size="11"><tspan fill="#484f58">exploring  </tspan><tspan fill="#a5d6ff">CTF challenges</tspan></text>

<text x="490" y="432" class="mono" font-size="10" fill="#30363d">// stack</text>
<text x="490" y="450" class="mono" font-size="11"><tspan fill="#484f58">security   </tspan><tspan fill="#ff7b72">burp · kali · owasp · recon</tspan></text>
<text x="490" y="466" class="mono" font-size="11"><tspan fill="#484f58">frontend   </tspan><tspan fill="#d2a8ff">react · html · css · ts</tspan></text>
<text x="490" y="482" class="mono" font-size="11"><tspan fill="#484f58">tools      </tspan><tspan fill="#8b949e">linux · docker · git · vim</tspan></text>

<!-- bottom rule + credit -->
<line x1="40" y1="505" x2="860" y2="505" stroke="#161b22" stroke-width="0.8"/>
<text x="450" y="517" class="mono" font-size="9" fill="#21262d" text-anchor="middle">
  generated 2026-04-20 21:24 UTC · data: open-meteo.com · ipapi.co · github.com
</text>

<!-- scan line -->
<line x1="0" y1="0" x2="900" y2="0" stroke="#58a6ff" stroke-width="0.5" opacity="0">
  <animate attributeName="y1" values="0;520" dur="5s" repeatCount="indefinite"/>
  <animate attributeName="y2" values="0;520" dur="5s" repeatCount="indefinite"/>
  <animate attributeName="opacity" values="0;0.35;0.35;0" keyTimes="0;0.02;0.98;1" dur="5s" repeatCount="indefinite"/>
</line>

</g>
</svg>